<svg width="64" height="64" viewBox="0 0 64 64" fill="none" xmlns="http://www.w3.org/2000/svg">
  <rect width="64" height="64" rx="16" fill="#0a0a0f"/>
  
  <defs>
    <linearGradient id="carGrad" x1="0" y1="0" x2="64" y2="64" gradientUnits="userSpaceOnUse">
      <stop stop-color="#29c4f8"/>
      <stop offset="1" stop-color="#0071e3"/>
    </linearGradient>
  </defs>
  
  <path d="M48 28H44L38 20H20L16 28H14C11.8 28 10 29.8 10 32V42H14A6 6 0 0 0 26 42H40A6 6 0 0 0 52 42H56V36C56 31.6 52.4 28 48 28Z" fill="url(#carGrad)"/>
  <circle cx="20" cy="42" r="4" fill="#ffffff"/>
  <circle cx="46" cy="42" r="4" fill="#ffffff"/>
  <path d="M19 28L23 22H36L40 28H19Z" fill="#ffffff" opacity="0.8"/>
  <rect x="26" y="22" width="2" height="6" fill="#0a0a0f"/>
</svg>
